<svg width="140" height="140" viewBox="0 0 140 140" fill="none" xmlns="http://www.w3.org/2000/svg">
<path d="M8.92404 69.2459C8.92404 75.4909 9.83272 81.5221 11.5241 87.2121C6.00518 97.2534 2.48987 106.675 1.37972 114.674C0.258183 122.755 1.57396 129.567 6.00368 133.996C10.3888 138.381 17.1088 139.715 25.0816 138.654C32.9688 137.604 42.2554 134.194 52.1639 128.817C58.0648 130.699 64.3469 131.714 70.8622 131.714C105.078 131.714 132.8 103.738 132.8 69.2459C132.8 62.6025 131.772 56.1996 129.866 50.1911C134.807 40.6998 137.888 31.8329 138.751 24.2955C139.624 16.6702 138.237 10.2443 133.996 6.00368C129.788 1.79551 123.428 0.39784 115.88 1.22936C108.423 2.05094 99.6521 5.05897 90.2573 9.90197C84.1551 7.87448 77.6347 6.77782 70.8622 6.77782C36.6465 6.77782 8.92404 34.7539 8.92404 69.2459ZM14.7982 95.8337C20.8114 108.709 31.0563 119.177 43.7253 125.415C42.6183 125.946 41.5251 126.447 40.4468 126.918C32.8705 130.226 26.3101 131.91 21.1233 132.106C15.9486 132.301 12.7512 131.021 10.8651 129.135C8.97896 127.249 7.69885 124.051 7.89443 118.877C8.09046 113.69 9.7741 107.13 13.0821 99.5532C13.6153 98.3319 14.1876 97.0914 14.7982 95.8337ZM70.8622 13.6529C94.3898 13.6529 114.517 28.569 122.387 49.5924C115.243 62.5584 104.419 76.9111 90.665 90.665C77.5874 103.743 63.9675 114.173 51.5124 121.308C30.6663 113.406 15.7991 93.1016 15.7991 69.2459C15.7991 38.4948 40.4993 13.6529 70.8622 13.6529ZM124.961 58.8267C125.594 62.2009 125.925 65.6837 125.925 69.2459C125.925 99.9969 101.225 124.839 70.8622 124.839C67.3471 124.839 63.9088 124.506 60.5766 123.87C72.0099 116.643 84.0151 107.038 95.5264 95.5264C107.626 83.4268 117.62 70.781 124.961 58.8267ZM129.135 10.8651C131.021 12.7512 132.301 15.9486 132.106 21.1233C131.91 26.3101 130.226 32.8705 126.918 40.4468C126.753 40.8243 126.585 41.2037 126.412 41.5848C120.46 29.449 110.713 19.543 98.7332 13.4447C99.0075 13.3219 99.2808 13.201 99.5532 13.0821C107.13 9.7741 113.69 8.09046 118.877 7.89443C124.051 7.69885 127.249 8.97896 129.135 10.8651Z" fill="white" stroke="white" stroke-width="2"/>
</svg>
