<svg width="32" height="31" viewBox="0 0 32 31" fill="none" xmlns="http://www.w3.org/2000/svg">
<circle cx="15.318" cy="15.318" r="14.318" fill="#FAFAFA" stroke="#38BDF8" stroke-width="2"/>
<path fill-rule="evenodd" clip-rule="evenodd" d="M15.1861 12.558L17.6873 8.20944H26.0168L22.8791 13.6646C22.4102 13.5848 21.8891 13.5509 21.3038 13.5772C18.3055 13.7115 16.4983 15.2948 15.8832 18.3268C16.9404 16.7771 18.227 16.1561 19.7431 16.4638C20.1914 16.5548 20.579 16.7579 20.9469 17.0239L15.1861 27.0395L4.35547 8.20944H12.6849L15.1861 12.558Z" fill="#374F73"/>
<path d="M20.744 15.0052C17.7427 15.0052 15.8665 16.5061 15.1162 19.5075C16.2418 18.0066 17.5548 17.4438 19.0557 17.8191C21.3068 18.3819 21.8696 21.7586 26.3719 21.7586C29.3733 21.7586 31.2495 20.2577 31.9997 17.2564C30.8741 18.7572 29.5611 19.32 28.0602 18.9447C25.8091 18.3819 25.2463 15.0052 20.744 15.0052Z" fill="#38BDF8"/>
<path d="M17.6876 8.20946L15.1864 12.558L12.6852 8.20946H8.68799L15.1864 19.5073L21.6848 8.20946H17.6876Z" fill="#38BDF8"/>
</svg>
