<svg width="800" height="800" viewBox="0 0 800 800" fill="none" xmlns="http://www.w3.org/2000/svg">
<path fill-rule="evenodd" clip-rule="evenodd" d="M313.432 275.844L385.816 149.999H626.864L536.059 307.871C522.488 305.56 507.402 304.579 490.461 305.338C403.69 309.226 351.393 355.047 333.591 442.79C364.187 397.941 401.419 379.97 445.295 388.876C458.271 391.509 469.491 397.39 480.14 405.091L313.432 694.928L0 149.999H241.048L313.432 275.844Z" fill="#374F73"/>
<path d="M474.267 346.665C387.409 346.665 333.113 390.099 311.401 476.958C343.975 433.523 381.973 417.237 425.407 428.098C490.554 444.385 506.84 542.104 637.133 542.104C723.991 542.104 778.286 498.67 799.998 411.811C767.425 455.246 729.427 471.532 685.992 460.671C620.846 444.385 604.56 346.665 474.267 346.665Z" fill="#38BDF8"/>
<path d="M385.815 150L313.432 275.845L241.048 150H125.373L313.432 476.951L501.491 150H385.815Z" fill="#38BDF8"/>
</svg>
