<svg  xmlns="http://www.w3.org/2000/svg" version="1.1" xmlns:xlink="http://www.w3.org/1999/xlink" xmlns:svgjs="http://svgjs.dev/svgjs" viewBox="0 0 1920 1080"><rect width="1920" height="1080" fill="#334155"></rect><g transform="matrix(7.04171909509728e-17,1.15,-1.15,7.04171909509728e-17,1531.7817993164062,-507.39906921386705)"><path d="M0,-1080C10.421113778202075,-1010.0174447294884,73.47051746653845,-846.6765353434861,62.52668266921245,-660.1046683769305C51.58284787188645,-473.5328014103749,-69.52717484709872,-181.43082484779572,-65.663008783956,39.431201799333394C-61.798842720813276,260.29322844646254,91.15503496940086,481.67281918004244,85.71167904806879,665.0674915058441C80.26832312673672,848.4621638316459,-93.6067992098939,984.1771865689602,-98.32314431194845,1139.7992357541436C-103.03948941400301,1295.421284939327,41.02641771708335,1428.766325909302,57.41360843574142,1598.7997866169446C73.8007991543995,1768.8332473245873,9.568934739290237,2066.466631102824,0,2160L 1920 2160 L 1920 -1080 Z" fill="url(&quot;#SvgjsLinearGradient1085&quot;)"></path><path d="M213.33333333333331,-1080C211.57570477272404,-988.002867856716,198.4003043765204,-757.0423551259369,202.7875619696776,-528.017207140296C207.17481956283478,-298.9920591546552,228.23775676109767,42.983446285686796,239.65687889227644,294.15088791384517C251.0760010234552,545.3183295420035,294.410640666778,764.7708545571141,271.3022947567502,978.9874426286542C248.19394884672235,1193.2040307001942,110.66829700267887,1382.6149901145275,101.0068034321094,1579.4504163430852C91.34530986153992,1776.285842571643,194.61224501646265,2063.241736057181,213.33333333333331,2160L 1920 2160 L 1920 -1080 Z" fill="url(&quot;#SvgjsLinearGradient1086&quot;)"></path><path d="M426.66666666666663,-1080C427.9304558534459,-1032.07578308322,455.49670325450603,-930.4126432837003,434.24940178734204,-792.454698499319C413.00210032017804,-654.4967537149377,308.1762778258807,-391.34770609074906,299.18285786368256,-252.2523312937123C290.18943790148444,-113.15695649667552,366.8423712604212,-100.26357454062622,380.28888201415316,42.11755028290179C393.7353927678851,184.4986751064298,370.7672179489073,436.5702450332793,379.86192238607435,602.0344176474557C388.95662682324144,767.4985902616321,437.0352145820049,918.6376882202582,434.85710863715565,1034.90258596796C432.67900269230637,1151.1674837156618,350.4440461570943,1189.1338141946546,366.79328671697874,1299.6238041336667C383.1425272768632,1410.1137940726787,522.9736553381811,1554.446492957643,532.9525519964624,1697.8425256020319C542.9314486547437,1841.2385582464208,444.38098088829923,2082.9737542670055,426.66666666666663,2160L 1920 2160 L 1920 -1080 Z" fill="url(&quot;#SvgjsLinearGradient1087&quot;)"></path><path d="M640,-1080C627.0522078466236,-990.2046456061546,542.1153667773032,-758.4769450081058,562.3132470797411,-541.2278736369278C582.5111273821791,-323.9788022657499,734.3828374521389,-10.401960166529676,761.1872818146278,223.4944282270675C787.9917261771167,457.3908166206646,755.1988999962698,643.1089149352428,723.1399132546744,862.1504567246552C691.080926513079,1081.1919985140678,582.6900135741677,1321.4354217509851,568.8333613650552,1537.7436789635426C554.9767091559428,1754.0519361761,628.1388935608426,2056.2906131605905,640,2160L 1920 2160 L 1920 -1080 Z" fill="url(&quot;#SvgjsLinearGradient1088&quot;)"></path><path d="M853.3333333333333,-1080C853.5756331418137,-979.4160345117634,861.159342861889,-662.0437040062607,854.7871321842156,-476.4962070705807C848.4149215065422,-290.9487101349007,834.4583309899466,-140.81883868497368,815.1000692672928,33.284981614080266C795.7418075446391,207.38880191313422,743.0802840247206,381.2094268393604,738.6375618482932,568.1267147237431C734.1948396718658,755.0440026081259,784.4723624281681,975.4331319378318,788.4437362087281,1154.7887089203768C792.415109989288,1334.1442859029219,751.650871677552,1476.7249614390762,762.4658045316529,1644.2601766190135C773.2807373857538,1811.7953917989507,838.1887451997198,2074.0433627698358,853.3333333333333,2160L 1920 2160 L 1920 -1080 Z" fill="url(&quot;#SvgjsLinearGradient1089&quot;)"></path><path d="M1066.6666666666667,-1080C1072.7170147822617,-1027.7508373080932,1124.2844419008588,-894.1819619137677,1102.9687553602366,-766.5050238485585C1081.6530688196144,-638.8280857833493,942.7247873957376,-453.0287215345069,938.7725474229335,-313.9383716087449C934.8203074501293,-174.84802168298287,1069.9167075450328,-83.1905968681526,1079.255315523412,68.03707570601352C1088.5939235017913,219.26474828017965,1008.9823575047045,451.2348028100105,994.804195293209,593.4276638362519C980.6260330817134,735.6205248624933,965.4259093496192,795.1237652702991,994.1863422544391,921.1942418634621C1022.9467751592589,1047.2647184566251,1159.1751259409525,1209.8285169177052,1167.3667927221277,1349.8505233952296C1175.5584595033029,1489.872529872754,1060.1196972840667,1626.3013679611474,1043.3363429414899,1761.3262807286092C1026.552988598913,1896.351193496071,1062.7782793791373,2093.554380121435,1066.6666666666667,2160L 1920 2160 L 1920 -1080 Z" fill="url(&quot;#SvgjsLinearGradient1090&quot;)"></path><path d="M1280,-1080C1297.4433856691785,-995.0459693504132,1382.1246490165424,-770.7308437663436,1384.6603140150717,-570.2758161024794C1387.195979013601,-369.8207884386153,1310.499086198085,-65.70182470509627,1295.2139899911758,122.73016598318515C1279.9288937842666,311.16215667146656,1285.9057069874605,412.4458734978816,1292.949736773617,560.3161280272091C1299.9937665597733,708.1863825565365,1331.7925902406034,821.8776807200533,1337.478168708114,1009.9516931591498C1343.1637471756246,1198.0257055982465,1336.6429023633664,1497.0854848549805,1327.0632075786807,1688.7602026617888C1317.483512793995,1880.434920468597,1287.8438679297801,2081.460033776965,1280,2160L 1920 2160 L 1920 -1080 Z" fill="url(&quot;#SvgjsLinearGradient1091&quot;)"></path><path d="M1493.3333333333333,-1080C1506.2488075106198,-985.3353971628762,1585.4837025347433,-703.0713604551358,1570.8261783970534,-512.0123829772572C1556.1686542593634,-320.9534054993785,1433.5465276336338,-122.02076854161703,1405.3881885071928,66.35386486727202C1377.2298493807518,254.72849827616108,1407.3324351678316,439.5581611824998,1401.876143638407,618.2354174760771C1396.4198521089825,796.9126737696545,1364.0977196579572,950.680718938883,1372.6504393306461,1138.4174026287362C1381.203159003335,1326.1540863185894,1433.0786460074255,1574.3917533866525,1453.19246167454,1744.6555196151965C1473.3062773416545,1914.9192858437405,1486.6431880568678,2090.775919935866,1493.3333333333333,2160L 1920 2160 L 1920 -1080 Z" fill="url(&quot;#SvgjsLinearGradient1092&quot;)"></path><path d="M1706.6666666666665,-1080C1702.961634394498,-1011.7029976666172,1701.5351721981392,-806.7593479003365,1684.4364730336556,-670.2179859997028C1667.337773869172,-533.6766240990692,1586.3113224141266,-407.9526776465566,1604.0744716797647,-260.7518285961978C1621.8376209454027,-113.550979545839,1764.3150681757465,65.37450583158707,1791.0153686274834,212.98710830245C1817.7156690792203,360.59971077331295,1760.603986071497,485.9626997432048,1764.2762743901862,624.9237862289797C1767.9485627088754,763.8848727147546,1808.2582445275057,916.3734345770697,1813.0490985396186,1046.7536272170992C1817.8399525517316,1177.1338198571286,1813.2770310094265,1276.5172124175278,1793.0213984628647,1407.2049420691562C1772.7657659163028,1537.8926717207846,1705.9077585596133,1705.4141621383956,1691.515303260247,1830.8800051268695C1677.1228479608808,1956.3458481153434,1704.1414394322633,2105.146667521145,1706.6666666666665,2160L 1920 2160 L 1920 -1080 Z" fill="url(&quot;#SvgjsLinearGradient1093&quot;)"></path></g><defs><linearGradient x1="0.1" y1="0" x2="0" y2="1" id="SvgjsLinearGradient1085"><stop stop-color="#334155" offset="0"></stop><stop stop-color="#334755" offset="0"></stop></linearGradient><linearGradient x1="0.1" y1="0" x2="0" y2="1" id="SvgjsLinearGradient1086"><stop stop-color="#435570" offset="0"></stop><stop stop-color="#435c70" offset="0.1111111111111111"></stop></linearGradient><linearGradient x1="0.1" y1="0" x2="0" y2="1" id="SvgjsLinearGradient1087"><stop stop-color="#536a8a" offset="0"></stop><stop stop-color="#53738a" offset="0.2222222222222222"></stop></linearGradient><linearGradient x1="0.1" y1="0" x2="0" y2="1" id="SvgjsLinearGradient1088"><stop stop-color="#657fa3" offset="0"></stop><stop stop-color="#6589a3" offset="0.3333333333333333"></stop></linearGradient><linearGradient x1="0.1" y1="0" x2="0" y2="1" id="SvgjsLinearGradient1089"><stop stop-color="#8095b3" offset="0"></stop><stop stop-color="#809db3" offset="0.4444444444444444"></stop></linearGradient><linearGradient x1="0.1" y1="0" x2="0" y2="1" id="SvgjsLinearGradient1090"><stop stop-color="#9babc3" offset="0"></stop><stop stop-color="#9bb2c3" offset="0.5555555555555556"></stop></linearGradient><linearGradient x1="0.1" y1="0" x2="0" y2="1" id="SvgjsLinearGradient1091"><stop stop-color="#b5c1d3" offset="0"></stop><stop stop-color="#b5c6d3" offset="0.6666666666666666"></stop></linearGradient><linearGradient x1="0.1" y1="0" x2="0" y2="1" id="SvgjsLinearGradient1092"><stop stop-color="#d0d8e3" offset="0"></stop><stop stop-color="#d0dbe3" offset="0.7777777777777778"></stop></linearGradient><linearGradient x1="0.1" y1="0" x2="0" y2="1" id="SvgjsLinearGradient1093"><stop stop-color="#eaeef3" offset="0"></stop><stop stop-color="#eaeff3" offset="0.8888888888888888"></stop></linearGradient></defs></svg>
