<svg width="93" height="78" viewBox="0 0 93 78" fill="none" xmlns="http://www.w3.org/2000/svg">
<path d="M7.47001 35C6.41636 34.9923 5.37161 34.8063 4.38001 34.45C2.74519 33.8724 1.4061 32.6701 0.65629 31.1067C-0.0935218 29.5434 -0.192875 27.7465 0.380011 26.11C0.624666 25.4137 1.00648 24.7734 1.50288 24.2272C1.99927 23.681 2.60016 23.2399 3.27001 22.93C3.90393 22.6335 4.59127 22.4682 5.29071 22.4441C5.99014 22.4201 6.68722 22.5377 7.34001 22.79C8.22375 23.1041 8.95161 23.7481 9.37105 24.587C9.79049 25.4259 9.86896 26.3945 9.59001 27.29C9.33999 28.1628 8.75876 28.9034 7.97035 29.3536C7.18195 29.8039 6.24879 29.9282 5.37001 29.7C5.12399 29.6311 4.91368 29.4706 4.78226 29.2515C4.65083 29.0324 4.60826 28.7713 4.66328 28.5217C4.7183 28.2722 4.86674 28.0533 5.07812 27.9097C5.28951 27.7662 5.54781 27.7091 5.80001 27.75C5.98906 27.81 6.18818 27.8316 6.38569 27.8136C6.5832 27.7956 6.77513 27.7384 6.95023 27.6452C7.12533 27.5521 7.28008 27.4249 7.40539 27.2712C7.53071 27.1175 7.62407 26.9403 7.68001 26.75C7.81198 26.3336 7.77345 25.8819 7.57288 25.4938C7.3723 25.1058 7.02604 24.8131 6.61001 24.68C6.20844 24.5256 5.77958 24.4548 5.34969 24.472C4.91981 24.4892 4.49797 24.594 4.11001 24.78C3.68515 24.9734 3.30339 25.25 2.98734 25.5935C2.67129 25.9371 2.42737 26.3405 2.27001 26.78C1.86797 27.91 1.92942 29.1532 2.44092 30.238C2.95243 31.3229 3.87244 32.1612 5.00001 32.57C5.7682 32.8824 6.59234 33.0339 7.42142 33.015C8.2505 32.996 9.06688 32.8072 9.82001 32.46C11.1215 31.7601 12.1029 30.5853 12.56 29.18C12.6484 28.9313 12.8314 28.7276 13.0693 28.6134C13.3072 28.4991 13.5807 28.4835 13.83 28.57C14.0805 28.6563 14.2865 28.8386 14.4028 29.0767C14.519 29.3148 14.536 29.5894 14.45 29.84C13.8252 31.7323 12.492 33.3092 10.73 34.24C9.71676 34.7421 8.60083 35.0022 7.47001 35V35Z" fill="#6D6DAA"/>
<path d="M26 69.94C25.86 63.85 26 54.06 27.71 48.15C28.14 42.67 32.55 38.57 37.51 39.05C42.51 39.53 46.17 44.4 45.74 49.88C46.46 56.03 45.11 65.7 44.03 71.67C43.09 77.06 26.16 75.44 26 69.94Z" fill="#FFB0C2"/>
<path d="M59 71.85C57.8 65.91 56.27 56.27 56.87 50.11C56.34 44.64 59.95 39.68 64.87 39.11C69.87 38.52 74.31 42.5 74.87 47.97C74 54.9 75.75 63.4 77 69.72C78.07 75.1 60.09 77.22 59 71.85Z" fill="#FFB0C2"/>
<path opacity="0.15" d="M75.56 62.06C74.93 57.76 74.37 51.92 74.87 47.95C74.33 42.48 69.87 38.5 64.87 39.09C59.87 39.68 56.32 44.64 56.87 50.09C56.31 55.83 57.61 64.59 58.76 70.57C65.36 68.73 71.3 66.61 75.56 62.06Z" fill="#750000"/>
<path opacity="0.15" d="M37.55 39.05C32.55 38.57 28.18 42.67 27.75 48.15C26.43 52.85 26.16 61.21 26.12 67C31.21 70.36 37.26 71.35 43.99 71.94C44.0212 71.8514 44.0479 71.7613 44.07 71.67C45.15 65.67 46.5 56.03 45.78 49.88C46.21 44.4 42.51 39.53 37.55 39.05Z" fill="#750000"/>
<path d="M36.68 76C36.12 76 35.56 76 35.01 75.94C30.1 75.55 25.12 73.56 25.01 69.94C24.91 65.54 24.88 54.63 26.73 47.94C26.9661 44.9658 28.3679 42.2054 30.63 40.26C31.5864 39.4359 32.6994 38.8136 33.9023 38.4303C35.1052 38.0471 36.3732 37.911 37.63 38.03C43.11 38.55 47.19 43.84 46.77 49.83C47.55 56.76 45.82 67.51 45.03 71.83C44.49 74.93 40.5 76 36.68 76ZM27 69.92C27 71.81 30.61 73.57 35.13 73.92C39.33 74.25 42.73 73.21 43.04 71.49C43.81 67.25 45.52 56.65 44.75 50C44.74 49.9337 44.74 49.8663 44.75 49.8C45.13 44.8 41.85 40.47 37.41 40.05C36.4361 39.9744 35.4569 40.0918 34.5285 40.3956C33.6001 40.6993 32.7409 41.1834 32 41.82C31.0701 42.6245 30.3087 43.6051 29.7595 44.7052C29.2103 45.8054 28.8842 47.0033 28.8 48.23C28.8047 48.2932 28.8047 48.3567 28.8 48.42C27 54.83 27.03 65.59 27.13 69.92H27Z" fill="#6D6DAA"/>
<path d="M66.18 76C62.13 76 58.58 74.82 58.02 72.07C57.16 67.78 55.22 57.07 55.87 50.13C55.33 44.13 59.31 38.77 64.78 38.13C66.0265 37.9939 67.2876 38.1078 68.4895 38.4649C69.6915 38.8221 70.8101 39.4153 71.78 40.21C72.9189 41.1643 73.8585 42.3338 74.5448 43.6517C75.2312 44.9695 75.6509 46.4097 75.78 47.89C75.98 50.34 76.12 52.53 76.26 54.57C76.4711 59.601 77.019 64.6122 77.9 69.57C78.43 72.29 75.62 74.57 70.58 75.57C69.1308 75.8557 67.6572 75.9997 66.18 76ZM60 71.66C60.41 73.66 65.31 74.56 70.29 73.57C73.95 72.85 76.29 71.33 76.04 69.89C75.1399 64.8566 74.5786 59.7685 74.36 54.66C74.23 52.66 74.08 50.45 73.89 48.03C73.7814 46.8124 73.432 45.6284 72.8621 44.5469C72.2921 43.4654 71.513 42.5079 70.57 41.73C69.8009 41.0935 68.9109 40.6191 67.9537 40.3356C66.9964 40.052 65.9917 39.9651 65 40.08C60.58 40.61 57.37 45.08 57.86 50.01V50.2C57.21 56.88 59.12 67.43 59.97 71.66H60Z" fill="#6D6DAA"/>
<path d="M59.37 28.5C53.26 24.74 51.7 16.15 55.9 9.32C60.1 2.49 68.47 -9.53674e-07 74.59 3.77C74.54 13 65.49 32.26 59.37 28.5Z" fill="#FFB0C2"/>
<path opacity="0.15" d="M70.57 2.24C65.2 1.24 59.24 3.9 55.9 9.32C52.16 15.41 55.62 18.32 60.17 22.58C66 21.69 71.92 9.75 70.57 2.24Z" fill="#750000"/>
<path d="M61 30C60.2284 30.0004 59.4725 29.7819 58.82 29.37V29.37C57.2173 28.3731 55.847 27.044 54.8016 25.4725C53.7563 23.9009 53.0601 22.1235 52.76 20.26C52.0816 16.2883 52.8973 12.206 55.05 8.8C59.54 1.51 68.53 -1.13 75.11 2.92C75.2541 3.01007 75.3729 3.13538 75.4551 3.2841C75.5374 3.43283 75.5803 3.60006 75.58 3.77C75.58 11.66 69.49 25.97 63.58 29.26C62.8001 29.7295 61.9101 29.9848 61 30V30ZM59.9 27.65C60.3165 27.8868 60.792 27.9994 61.2705 27.9746C61.7489 27.9498 62.2102 27.7886 62.6 27.51C67.6 24.72 73.25 11.62 73.6 4.33C68.01 1.33 60.6 3.68 56.79 9.85C54.917 12.8243 54.205 16.3841 54.79 19.85C55.0465 21.4356 55.6386 22.9481 56.5267 24.2863C57.4149 25.6246 58.5786 26.7578 59.94 27.61L59.9 27.65Z" fill="#6D6DAA"/>
<path d="M86.73 28.05H80.41C75.41 16.36 62.41 8.05 47.06 8.05C27.45 8.05 11.56 21.71 11.56 38.55C11.6069 45.2207 14.0647 51.6494 18.48 56.65C18.052 61.4006 17.8918 66.1714 18 70.94C18.12 76.44 35.05 78.06 36 72.67C36.26 71.21 36.54 69.53 36.81 67.73C40.1591 68.5859 43.6033 69.0127 47.06 69C48.14 69 49.21 68.95 50.26 68.87C50.51 70.31 50.76 71.65 51 72.87C52.09 78.24 69 76.22 69 70.72C69 68.42 68.08 65.52 68.8 62.64C73.2622 59.7084 76.9199 55.7069 79.44 51H86.73C89.39 51 91.54 45.86 91.54 39.52C91.54 33.18 89.39 28.05 86.73 28.05Z" fill="#FFB0C2"/>
<path d="M60.2 52.9C63.1437 52.9 65.53 50.5137 65.53 47.57C65.53 44.6263 63.1437 42.24 60.2 42.24C57.2563 42.24 54.87 44.6263 54.87 47.57C54.87 50.5137 57.2563 52.9 60.2 52.9Z" fill="#FF94AC"/>
<path d="M67.54 36C67.2748 36 67.0204 35.8946 66.8329 35.7071C66.6454 35.5196 66.54 35.2652 66.54 35C66.54 34.337 66.2766 33.7011 65.8078 33.2322C65.3389 32.7634 64.703 32.5 64.04 32.5C63.377 32.5 62.7411 32.7634 62.2722 33.2322C61.8034 33.7011 61.54 34.337 61.54 35C61.54 35.2652 61.4347 35.5196 61.2471 35.7071C61.0596 35.8946 60.8052 36 60.54 36C60.2748 36 60.0204 35.8946 59.8329 35.7071C59.6454 35.5196 59.54 35.2652 59.54 35C59.54 33.8065 60.0141 32.6619 60.858 31.818C61.7019 30.9741 62.8465 30.5 64.04 30.5C65.2335 30.5 66.3781 30.9741 67.222 31.818C68.0659 32.6619 68.54 33.8065 68.54 35C68.54 35.2652 68.4347 35.5196 68.2471 35.7071C68.0596 35.8946 67.8052 36 67.54 36Z" fill="#6D6DAA"/>
<g opacity="0.15">
<path opacity="0.15" d="M84 45H79C73.44 55.61 61.48 63 47.06 63C28.63 63 13.49 50.94 11.73 35.51C11.618 36.5061 11.5612 37.5076 11.56 38.51C11.56 55.36 27.45 69.01 47.06 69.01C61.48 69.01 73.88 61.62 79.44 51.01H86.73C89.39 51.01 91.54 45.87 91.54 39.53C91.5408 38.5276 91.484 37.5259 91.37 36.53C91 40 88 45 84 45Z" fill="#750000"/>
<path opacity="0.15" d="M33.67 62.67C32.61 64.49 31.75 70.08 31.67 72.58C31.57 75.46 26.31 75.31 21.75 74.73C26.82 76.73 35.38 76.46 36.07 72.67C36.54 70.06 37.07 66.75 37.45 63.33L33.67 62.67Z" fill="#750000"/>
<path opacity="0.15" d="M63.92 62.5C64.1 65.61 65.33 68.67 65.25 71.33C65.17 73.99 61.1 75.33 56.89 75.96C62.15 76.29 68.99 74.2 69 70.7C69 67.78 68.45 64.27 68.17 60.5L63.92 62.5Z" fill="#750000"/>
</g>
<path opacity="0.15" d="M53.74 8.58C51.5 14.56 52.83 20.82 58 24C62 22 67 18 69 15C64.5758 11.5394 59.3076 9.323 53.74 8.58V8.58Z" fill="#750000"/>
<path opacity="0.5" d="M47.06 11C62.38 11 74.74 19.35 79.71 31H86.71C89.15 31 91.17 35.35 91.48 41C91.48 40.51 91.48 40 91.48 39.5C91.48 33.16 89.33 28.02 86.67 28.02H80.41C75.41 16.33 62.41 8.02 47.06 8.02C27.45 8.02 11.56 21.68 11.56 38.52C11.56 39.02 11.56 39.52 11.56 40.02C12.51 23.86 28 11 47.06 11Z" fill="white"/>
<path d="M86.86 28.05H86.69C84.1 28.05 82 33.19 82 39.53C82 45.87 84.1 51 86.69 51H86.86C89.44 51 91.54 45.86 91.54 39.52C91.54 33.18 89.44 28.05 86.86 28.05Z" fill="#FFD8E1"/>
<path d="M58 77C54.34 77 50.61 76 50 73C49.81 72 49.61 71 49.41 69.89C48.6 69.89 47.81 69.96 47.04 69.96C43.9006 69.9901 40.7677 69.6681 37.7 69C37.5 70.32 37.28 71.62 37.05 72.89C36.41 76.43 31.24 77.3 27.05 76.96C22.14 76.57 17.16 74.58 17.05 70.96C16.9299 66.2893 17.0667 61.6156 17.46 56.96C13.046 51.8307 10.6034 45.2969 10.57 38.53C10.57 21.16 26.94 7.03 47.07 7.03C61.88 7.03 75.12 14.66 80.79 26.46C80.8666 26.6407 80.9946 26.795 81.1582 26.9034C81.3218 27.0119 81.5137 27.0698 81.71 27.07H86.71C90.02 27.07 92.52 32.44 92.52 39.55C92.52 46.66 90 52 86.73 52H80.62C80.4364 51.9996 80.2562 52.0498 80.0992 52.1451C79.9422 52.2403 79.8145 52.377 79.73 52.54C77.2057 56.8289 73.7465 60.4931 69.61 63.26C69.3939 64.7563 69.4379 66.2787 69.74 67.76C69.882 68.7343 69.9688 69.7159 70 70.7C70 74.31 65 76.41 60 76.9C59.39 77 58.7 77 58 77ZM50.25 67.88C50.4882 67.8765 50.7199 67.9582 50.9032 68.1104C51.0865 68.2626 51.2095 68.4752 51.25 68.71C51.49 70.13 51.75 71.47 51.98 72.71C52.33 74.42 55.64 75.37 59.86 74.96C64.42 74.51 67.99 72.66 68 70.75C67.9691 69.8526 67.8856 68.9577 67.75 68.07C67.47 65.91 67.19 63.68 67.9 62.23C67.9794 62.0712 68.0961 61.9339 68.24 61.83C72.2376 59.1959 75.5768 55.6788 78 51.55C78.2587 51.0814 78.6381 50.6905 79.0988 50.418C79.5595 50.1454 80.0847 50.0011 80.62 50H86.73C88.32 50 90.54 46 90.54 39.52C90.54 33.04 88.32 29.04 86.73 29.04H81.73C81.1573 29.0423 80.5959 28.8806 80.1121 28.5741C79.6284 28.2675 79.2425 27.8289 79 27.31C73.64 16.2 61.1 9 47.06 9C28.06 9 12.56 22.24 12.56 38.5C12.5875 44.951 14.962 51.1715 19.24 56C19.3287 56.1023 19.3957 56.2215 19.4369 56.3504C19.4782 56.4793 19.4928 56.6153 19.48 56.75C19.0513 61.4604 18.891 66.1914 19 70.92C19 72.81 22.61 74.57 27.13 74.92C31.33 75.25 34.73 74.21 35.04 72.49C35.35 70.77 35.6 69.24 35.85 67.59C35.8697 67.4516 35.9182 67.3188 35.9924 67.2003C36.0666 67.0817 36.1648 66.9801 36.2807 66.9019C36.3966 66.8236 36.5276 66.7706 36.6653 66.7462C36.803 66.7217 36.9443 66.7264 37.08 66.76C40.3411 67.5922 43.6944 68.0088 47.06 68C48.06 68 49.06 68 50.19 67.88H50.25Z" fill="#6D6DAA"/>
<path opacity="0.5" d="M25.92 66.75C25.66 69.75 25.27 71.36 23.46 70.83C21.81 70.35 21.59 69.53 21.68 66.07C21.75 63.42 23.17 62.55 24.17 62.83C25.5 63.21 26.08 64.83 25.92 66.75Z" fill="white"/>
<path opacity="0.5" d="M58.6 70.7C58.71 71.88 58.42 72.79 56.82 72.88C56.2388 72.9465 55.6543 72.786 55.1885 72.432C54.7227 72.078 54.4116 71.5578 54.32 70.98C54.05 69.52 55.32 68.92 56.39 68.91C56.6549 68.8675 56.9259 68.8813 57.1851 68.9505C57.4443 69.0197 57.6861 69.1428 57.8946 69.3117C58.1031 69.4806 58.2737 69.6915 58.3952 69.9307C58.5167 70.1699 58.5865 70.432 58.6 70.7V70.7Z" fill="white"/>
<path d="M85 41C84.7348 41 84.4804 40.8946 84.2929 40.7071C84.1054 40.5196 84 40.2652 84 40V39C84 38.7348 84.1054 38.4804 84.2929 38.2929C84.4804 38.1054 84.7348 38 85 38C85.2652 38 85.5196 38.1054 85.7071 38.2929C85.8946 38.4804 86 38.7348 86 39V40C86 40.2652 85.8946 40.5196 85.7071 40.7071C85.5196 40.8946 85.2652 41 85 41Z" fill="#6D6DAA"/>
<path d="M88 41C87.7348 41 87.4804 40.8946 87.2929 40.7071C87.1054 40.5196 87 40.2652 87 40V39C87 38.7348 87.1054 38.4804 87.2929 38.2929C87.4804 38.1054 87.7348 38 88 38C88.2652 38 88.5196 38.1054 88.7071 38.2929C88.8946 38.4804 89 38.7348 89 39V40C89 40.2652 88.8946 40.5196 88.7071 40.7071C88.5196 40.8946 88.2652 41 88 41Z" fill="#6D6DAA"/>
<path d="M34 14.75C33.8048 14.7507 33.6137 14.6942 33.4502 14.5876C33.2868 14.481 33.1581 14.3289 33.08 14.15C33.027 14.0292 32.9985 13.8992 32.996 13.7674C32.9935 13.6355 33.017 13.5045 33.0654 13.3818C33.1137 13.2591 33.1858 13.1472 33.2776 13.0525C33.3693 12.9578 33.4789 12.8822 33.6 12.83C37.5326 11.1872 41.739 10.2984 46 10.21C46.2652 10.21 46.5196 10.3154 46.7071 10.5029C46.8946 10.6904 47 10.9448 47 11.21C47 11.4752 46.8946 11.7296 46.7071 11.9171C46.5196 12.1046 46.2652 12.21 46 12.21C42.0151 12.311 38.0829 13.1449 34.4 14.67C34.2726 14.7205 34.1371 14.7476 34 14.75V14.75Z" fill="#6D6DAA"/>
<path d="M50.91 27.5C44.79 23.74 43.24 15.15 47.44 8.32C51.64 1.49 60 -1 66.12 2.77C66.12 12 57 31.26 50.91 27.5Z" fill="#FFB0C2"/>
<path d="M58 25.29C57.7744 25.2887 57.5559 25.2112 57.38 25.07C57.174 24.905 57.0415 24.6652 57.0115 24.403C56.9816 24.1407 57.0565 23.8772 57.22 23.67C61.22 18.67 64.88 9.16 65.11 3.34C59.52 0.290001 52.11 2.68 48.29 8.85C48.2241 8.96779 48.1351 9.07103 48.0282 9.15349C47.9214 9.23595 47.7989 9.29593 47.6683 9.32981C47.5377 9.3637 47.4015 9.37079 47.268 9.35065C47.1346 9.33051 47.0066 9.28356 46.8918 9.21264C46.7769 9.14171 46.6776 9.04828 46.5999 8.93796C46.5221 8.82764 46.4675 8.70273 46.4393 8.57074C46.4111 8.43875 46.4099 8.30242 46.4358 8.16996C46.4617 8.0375 46.5142 7.91165 46.59 7.8C51.07 0.51 60.07 -2.13 66.59 1.92C66.736 2.00886 66.8567 2.13365 66.9408 2.28245C67.0248 2.43126 67.0693 2.59911 67.07 2.77C67.07 9 63.17 19.35 58.73 24.92C58.6413 25.0297 58.5304 25.1193 58.4046 25.1831C58.2788 25.2469 58.1409 25.2833 58 25.29V25.29Z" fill="#6D6DAA"/>
<path opacity="0.5" d="M57 9.42C54.34 12 51.5 14 50.33 12.83C49.16 11.66 49.59 8.83 52.25 6.25C54.91 3.67 59.34 2.65 60.5 3.83C61.66 5.01 59.66 6.8 57 9.42Z" fill="white"/>
<path opacity="0.5" d="M38.3627 38.5583C45.9967 35.1738 50.0585 27.6332 47.4351 21.7159C44.8116 15.7986 36.4964 13.7454 28.8625 17.1299C21.2286 20.5143 17.1667 28.0549 19.7902 33.9722C22.4136 39.8895 30.7288 41.9428 38.3627 38.5583Z" fill="white"/>
<path d="M35.8487 23.0444L33.3135 25.9013L32.107 22.2773L25.8768 21L31.1011 36.6925L42.079 24.3218L35.8487 23.0444Z" fill="#41B883"/>
<path d="M35.8487 23.0444L33.3135 25.9013L32.107 22.2773L29.1172 21.6644L32.2518 31.0797L38.8385 23.6574L35.8487 23.0444Z" fill="#34495E"/>
<path d="M80 52C76.32 52 75.1 48.47 75 48.32C74.9151 48.068 74.9338 47.7927 75.052 47.5545C75.1701 47.3163 75.378 47.1349 75.63 47.05C75.8819 46.9651 76.1573 46.9838 76.3955 47.102C76.6336 47.2201 76.8151 47.428 76.9 47.68V47.68C77.1241 48.3332 77.5397 48.9038 78.0926 49.3176C78.6455 49.7313 79.3101 49.9691 80 50C80.2652 50 80.5196 50.1054 80.7071 50.2929C80.8946 50.4804 81 50.7348 81 51C81 51.2652 80.8946 51.5196 80.7071 51.7071C80.5196 51.8946 80.2652 52 80 52Z" fill="#6D6DAA"/>
</svg>
