<?xml version="1.0" encoding="UTF-8" standalone="no"?>
<!DOCTYPE svg PUBLIC "-//W3C//DTD SVG 1.1//EN" "http://www.w3.org/Graphics/SVG/1.1/DTD/svg11.dtd">
<svg width="100%" height="100%" viewBox="0 0 85 88" version="1.1" xmlns="http://www.w3.org/2000/svg" xmlns:xlink="http://www.w3.org/1999/xlink" xml:space="preserve" xmlns:serif="http://www.serif.com/" style="fill-rule:evenodd;clip-rule:evenodd;stroke-linejoin:round;stroke-miterlimit:2;">
    <g transform="matrix(-0.944523,0.328445,0.328445,0.944523,100.235,-315.154)">
        <path d="M151.818,296.646C144.794,293.171 136.348,291.768 128.642,290.729C128.379,290.694 128.36,291.074 128.604,291.129C136.45,292.885 144.128,294.132 151.68,297.019C151.924,297.111 152.042,296.757 151.818,296.646Z" style="fill:white;fill-rule:nonzero;stroke:white;stroke-width:1.07px;"/>
    </g>
    <g transform="matrix(-0.944523,0.328445,0.328445,0.944523,100.235,-315.154)">
        <path d="M124.467,304.605C141.777,322.067 164.825,334.159 187.632,342.615C187.86,342.7 187.976,342.365 187.761,342.266C182.015,339.6 176.015,337.928 170.368,334.965C165.159,332.232 159.981,329.43 154.896,326.471C144.036,320.152 133.976,312.907 124.751,304.364C124.58,304.206 124.295,304.433 124.467,304.605Z" style="fill:white;fill-rule:nonzero;stroke:white;stroke-width:1.07px;"/>
    </g>
    <g transform="matrix(-0.944523,0.328445,0.328445,0.944523,100.235,-315.154)">
        <path d="M189.782,343.367C194.451,345.702 229.02,356.745 225.622,343.654C225.541,343.341 225.11,343.423 225.132,343.74C225.985,355.854 195.792,345.294 189.95,342.914C189.656,342.794 189.511,343.231 189.782,343.367Z" style="fill:white;fill-rule:nonzero;stroke:white;stroke-width:1.07px;"/>
    </g>
    <g transform="matrix(-0.944523,0.328445,0.328445,0.944523,100.235,-315.154)">
        <path d="M204.338,323.335C210.957,329.195 218.125,334.009 223.899,340.803C224.104,341.044 224.46,340.737 224.271,340.488C218.925,333.438 211.263,328.644 204.563,323.014C204.368,322.85 204.153,323.17 204.338,323.335Z" style="fill:white;fill-rule:nonzero;stroke:white;stroke-width:1.07px;"/>
    </g>
    <g transform="matrix(-0.944523,0.328445,0.328445,0.944523,100.235,-315.154)">
        <path d="M202.732,328.54C205.229,331.055 206.378,331.183 205.394,334.979C204.537,338.286 204.615,338.164 201.666,338.107C200.814,338.091 199.962,338 199.117,337.911C193.339,337.306 188.01,334.986 182.445,333.498C182.231,333.44 182.107,333.758 182.324,333.825C187.382,335.401 192.477,337.415 197.724,338.262C200.01,338.631 203.445,339.171 205.648,338.112C210.859,335.606 205.548,330.507 202.991,328.257C202.828,328.112 202.578,328.385 202.732,328.54Z" style="fill:white;fill-rule:nonzero;stroke:white;stroke-width:1.07px;"/>
    </g>
    <g transform="matrix(-0.944523,0.328445,0.328445,0.944523,100.235,-315.154)">
        <path d="M175.563,330.328C175.159,330.196 174.672,330.091 174.335,329.819C174.167,329.684 173.976,329.959 174.143,330.093C174.506,330.385 175.014,330.5 175.447,330.642C175.652,330.708 175.769,330.395 175.563,330.328Z" style="fill:white;fill-rule:nonzero;stroke:white;stroke-width:1.07px;"/>
    </g>
    <g transform="matrix(-0.944523,0.328445,0.328445,0.944523,100.235,-315.154)">
        <path d="M148.019,299.681C143.777,299.616 132.491,297.607 136.925,305.6C138.514,308.461 141.245,310.689 143.81,312.636C149.66,317.072 155.851,321.108 162.175,324.833C162.4,324.966 162.635,324.643 162.411,324.496C155.887,320.257 149.053,316.313 143.038,311.342C141.366,309.961 137.486,306.853 137.034,304.453C135.721,297.488 144.732,300.3 147.971,300.185C148.288,300.174 148.351,299.686 148.019,299.681Z" style="fill:white;fill-rule:nonzero;stroke:white;stroke-width:1.07px;"/>
    </g>
    <g transform="matrix(-0.944523,0.328445,0.328445,0.944523,100.235,-315.154)">
        <path d="M163.978,325.911C166.829,327.479 169.946,329.277 173.08,330.179C173.309,330.245 173.53,329.91 173.289,329.78C170.38,328.214 167.219,326.831 164.182,325.521C163.954,325.422 163.754,325.788 163.978,325.911Z" style="fill:white;fill-rule:nonzero;stroke:white;stroke-width:1.07px;"/>
    </g>
    <g transform="matrix(-0.944523,0.328445,0.328445,0.944523,100.235,-315.154)">
        <path d="M176.701,331.946C177.211,332.139 177.71,332.362 178.218,332.563C178.68,332.744 179.151,332.983 179.652,333.011C179.868,333.022 179.997,332.732 179.802,332.604C179.387,332.328 178.88,332.204 178.416,332.027C177.902,331.833 177.387,331.671 176.858,331.521C176.58,331.441 176.424,331.842 176.701,331.946Z" style="fill:white;fill-rule:nonzero;stroke:white;stroke-width:1.07px;"/>
    </g>
    <g transform="matrix(-0.944523,0.328445,0.328445,0.944523,100.235,-315.154)">
        <path d="M142.754,311.427C146.343,299.172 156.093,293.047 167.754,289.504C168.019,289.424 167.966,289.029 167.678,289.071C156.602,290.7 143.883,299.54 142.269,311.316C142.23,311.594 142.673,311.702 142.754,311.427Z" style="fill:white;fill-rule:nonzero;stroke:white;stroke-width:1.07px;"/>
    </g>
    <g transform="matrix(-0.944523,0.328445,0.328445,0.944523,100.235,-315.154)">
        <path d="M167.398,289.531C168.515,289.464 169.512,289.674 170.612,289.805C171.407,289.898 172.277,289.954 172.931,289.438C173.097,289.307 173.014,288.979 172.787,288.979C171.729,288.979 170.77,289.061 169.702,288.908C168.867,288.789 168.023,288.666 167.251,289.07C166.996,289.205 167.131,289.547 167.398,289.531Z" style="fill:white;fill-rule:nonzero;stroke:white;stroke-width:1.07px;"/>
    </g>
    <g transform="matrix(-0.944523,0.328445,0.328445,0.944523,100.235,-315.154)">
        <path d="M172.02,289.477C180.965,289.437 187.209,293.329 194.122,298.47C194.401,298.677 194.748,298.287 194.528,298.024C189.615,292.16 179.635,287.62 172.001,289.018C171.753,289.063 171.75,289.478 172.02,289.477Z" style="fill:white;fill-rule:nonzero;stroke:white;stroke-width:1.07px;"/>
    </g>
    <g transform="matrix(-0.944523,0.328445,0.328445,0.944523,100.235,-315.154)">
        <path d="M193.651,298.274C193.896,299.529 194.808,300.357 195.734,301.173C196.357,301.722 197.003,302.246 197.564,302.861C198.163,303.518 198.512,304.304 199.032,305.007C199.154,305.173 199.487,305.086 199.481,304.866C199.394,301.847 195.227,300.685 194.197,298.1C194.076,297.795 193.589,297.957 193.651,298.274Z" style="fill:white;fill-rule:nonzero;stroke:white;stroke-width:1.07px;"/>
    </g>
    <g transform="matrix(-0.944523,0.328445,0.328445,0.944523,100.235,-315.154)">
        <path d="M198.67,304.938C203.437,315.9 204.64,326.984 197.074,337.087C196.826,337.417 197.326,337.898 197.62,337.585C205.272,329.421 205.674,313.636 199.032,304.705C198.881,304.502 198.575,304.72 198.67,304.938Z" style="fill:white;fill-rule:nonzero;stroke:white;stroke-width:1.07px;"/>
    </g>
    <g transform="matrix(-0.944523,0.328445,0.328445,0.944523,100.235,-315.154)">
        <path d="M140.716,318.429C141.659,322.341 141.098,326.124 142.383,330.062C143.427,333.259 144.728,336.639 147.339,338.874C147.548,339.054 147.788,338.736 147.646,338.538C145.192,335.137 143.545,331.529 142.479,327.47C141.688,324.452 142.559,321.099 141.194,318.275C141.073,318.026 140.647,318.144 140.716,318.429Z" style="fill:white;fill-rule:nonzero;stroke:white;stroke-width:1.07px;"/>
    </g>
    <g transform="matrix(-0.944523,0.328445,0.328445,0.944523,100.235,-315.154)">
        <path d="M147.369,338.96C148.455,339.48 149.402,340.076 150.214,340.98C150.907,341.751 151.374,342.675 152.036,343.466C152.171,343.629 152.459,343.501 152.416,343.288C151.977,341.147 149.689,338.901 147.572,338.413C147.209,338.329 147.025,338.795 147.369,338.96Z" style="fill:white;fill-rule:nonzero;stroke:white;stroke-width:1.07px;"/>
    </g>
    <g transform="matrix(-0.944523,0.328445,0.328445,0.944523,100.235,-315.154)">
        <path d="M151.64,343.136C153.042,344.725 154.944,345.829 156.796,346.816C158.705,347.835 160.868,349.017 163.046,349.24C163.28,349.264 163.447,348.903 163.215,348.78C161.462,347.85 159.535,347.272 157.751,346.387C155.699,345.366 153.804,344.146 151.985,342.758C151.752,342.58 151.447,342.917 151.64,343.136Z" style="fill:white;fill-rule:nonzero;stroke:white;stroke-width:1.07px;"/>
    </g>
    <g transform="matrix(-0.944523,0.328445,0.328445,0.944523,100.235,-315.154)">
        <path d="M162.314,348.994C164.011,351.473 167.596,351.715 170.224,350.774C170.47,350.687 170.378,350.303 170.138,350.285C168.922,350.191 167.717,350.47 166.502,350.378C164.937,350.26 163.882,349.52 162.688,348.584C162.42,348.375 162.146,348.75 162.314,348.994Z" style="fill:white;fill-rule:nonzero;stroke:white;stroke-width:1.07px;"/>
    </g>
    <g transform="matrix(-0.944523,0.328445,0.328445,0.944523,100.235,-315.154)">
        <path d="M169.08,350.819C173.293,350.145 177.382,350.794 181.513,349.509C185.088,348.396 188.628,346.909 191.423,344.367C191.843,343.985 191.273,343.308 190.852,343.692C187.902,346.38 183.939,348.012 180.112,349.021C176.438,349.991 172.63,349.251 168.985,350.283C168.654,350.377 168.726,350.876 169.08,350.819Z" style="fill:white;fill-rule:nonzero;stroke:white;stroke-width:1.07px;"/>
    </g>
    <g transform="matrix(-0.944523,0.328445,0.328445,0.944523,100.235,-315.154)">
        <path d="M130.5,291.079C126.916,289.771 120.359,289.938 119.535,294.731C118.813,298.931 123.424,304.728 126.818,306.664C127.082,306.814 127.36,306.524 127.176,306.271C124.929,303.193 121.604,301.027 120.571,297.109C118.922,290.863 126.41,291.063 130.409,291.477C130.641,291.501 130.72,291.159 130.5,291.079Z" style="fill:white;fill-rule:nonzero;stroke:white;stroke-width:1.07px;"/>
    </g>
    <g transform="matrix(-0.944523,0.328445,0.328445,0.944523,100.235,-315.154)">
        <path d="M223.718,340.192C224.479,341.786 224.729,343.487 225.187,345.175C225.255,345.43 225.637,345.371 225.596,345.103C225.333,343.374 224.864,341.589 224.081,340.02C223.966,339.789 223.607,339.958 223.718,340.192Z" style="fill:white;fill-rule:nonzero;stroke:white;stroke-width:1.07px;"/>
    </g>
</svg>
