<svg width="156" height="83" viewBox="0 0 156 83" fill="none" xmlns="http://www.w3.org/2000/svg">
<rect x="156" y="83" width="156" height="83" rx="19" transform="rotate(-180 156 83)" fill="#34495E"/>
<rect x="151" y="79" width="146" height="74" rx="16" transform="rotate(-180 151 79)" fill="#38BDF8"/>
<path fill-rule="evenodd" clip-rule="evenodd" d="M62.5414 3L18.9992 3C10.1627 3 2.99923 10.1634 2.99923 19L2.99922 65C2.99922 73.8365 10.1627 81 18.9992 81L100.065 81L61.1961 3.71331L62.5414 3Z" fill="#34495E"/>
<path d="M19.1324 25.2253L28.2648 45.0485L37.361 25.2253H46.5296L28.1923 62.9509L10 25.2253H19.1324Z" fill="white"/>
<path d="M58.0017 25.2253V45.4833C58.0017 51.33 60.3089 54.2533 64.9234 54.2533C69.538 54.2533 71.8452 51.33 71.8452 45.4833V25.2253H79.9992V45.6645C79.9992 48.4912 79.6488 50.9314 78.9482 52.9849C78.2717 54.8211 77.1 56.476 75.433 57.9498C72.6787 60.3416 69.1756 61.5375 64.9234 61.5375C60.6955 61.5375 57.2044 60.3416 54.4502 57.9498C52.759 56.476 51.5631 54.8211 50.8624 52.9849C50.186 51.3421 49.8477 48.9019 49.8477 45.6645V25.2253H58.0017Z" fill="white"/>
<path d="M81.0178 25.2253L90.2589 45.3746L100.225 22L110.263 45.3746L119.396 25.2253H128.528L110.046 63.1683L100.225 40.446L90.2951 63.1683L71.8491 25.2253H81.0178Z" fill="#34495E"/>
<path d="M140 25.2253V60.5228H131.846V25.2253H140Z" fill="#34495E"/>
</svg>
