<svg width="100" height="78" viewBox="0 0 100 78" fill="none" xmlns="http://www.w3.org/2000/svg">
<path d="M8.40369 25.6507C2.78807 25.3448 0.807959 28.9431 0.255641 30.9364C0.816083 30.2276 2.52159 28.7123 4.82813 28.9068C7.5162 29.1335 9.32623 32.1093 10.5011 33.0896C11.9285 34.2805 14.8584 35.9412 18.9562 35.1406C22.2237 34.5023 23.9705 31.4619 24.4208 29.9876C22.712 31.8182 20.2715 32.7984 17.4924 31.1659C15.5786 30.0417 14.4192 25.9785 8.40369 25.6507Z" fill="#6D6DAA"/>
<path d="M33 69.94C32.86 63.85 33 54.06 34.71 48.15C35.14 42.67 39.55 38.57 44.51 39.05C49.51 39.53 53.17 44.4 52.74 49.88C53.46 56.03 52.11 65.7 51.03 71.67C50.09 77.06 33.16 75.44 33 69.94Z" fill="#FFB0C2"/>
<path d="M66 71.85C64.8 65.91 63.27 56.27 63.87 50.11C63.34 44.64 66.95 39.68 71.87 39.11C76.87 38.52 81.31 42.5 81.87 47.97C81 54.9 82.75 63.4 84 69.72C85.07 75.1 67.09 77.22 66 71.85Z" fill="#FFB0C2"/>
<path opacity="0.15" d="M82.56 62.06C81.93 57.76 81.37 51.92 81.87 47.95C81.33 42.48 76.87 38.5 71.87 39.09C66.87 39.68 63.32 44.64 63.87 50.09C63.31 55.83 64.61 64.59 65.76 70.57C72.36 68.73 78.3 66.61 82.56 62.06Z" fill="#750000"/>
<path opacity="0.15" d="M44.55 39.05C39.55 38.57 35.18 42.67 34.75 48.15C33.43 52.85 33.16 61.21 33.12 67C38.21 70.36 44.26 71.35 50.99 71.94C51.0212 71.8514 51.0479 71.7613 51.07 71.67C52.15 65.67 53.5 56.03 52.78 49.88C53.21 44.4 49.51 39.53 44.55 39.05Z" fill="#750000"/>
<path d="M43.68 76C43.12 76 42.56 76 42.01 75.94C37.1 75.55 32.12 73.56 32.01 69.94C31.91 65.54 31.88 54.63 33.73 47.94C33.9661 44.9658 35.3679 42.2054 37.63 40.26C38.5864 39.4359 39.6994 38.8136 40.9023 38.4303C42.1052 38.0471 43.3732 37.911 44.63 38.03C50.11 38.55 54.19 43.84 53.77 49.83C54.55 56.76 52.82 67.51 52.03 71.83C51.49 74.93 47.5 76 43.68 76ZM34 69.92C34 71.81 37.61 73.57 42.13 73.92C46.33 74.25 49.73 73.21 50.04 71.49C50.81 67.25 52.52 56.65 51.75 50C51.74 49.9337 51.74 49.8663 51.75 49.8C52.13 44.8 48.85 40.47 44.41 40.05C43.4361 39.9744 42.4569 40.0918 41.5285 40.3956C40.6001 40.6993 39.7409 41.1834 39 41.82C38.0701 42.6245 37.3087 43.6051 36.7595 44.7052C36.2103 45.8054 35.8842 47.0033 35.8 48.23C35.8047 48.2932 35.8047 48.3567 35.8 48.42C34 54.83 34.03 65.59 34.13 69.92H34Z" fill="#6D6DAA"/>
<path d="M73.18 76C69.13 76 65.58 74.82 65.02 72.07C64.16 67.78 62.22 57.07 62.87 50.13C62.33 44.13 66.31 38.77 71.78 38.13C73.0265 37.9939 74.2876 38.1078 75.4895 38.4649C76.6915 38.8221 77.8101 39.4153 78.78 40.21C79.9189 41.1643 80.8585 42.3338 81.5448 43.6517C82.2312 44.9695 82.6509 46.4097 82.78 47.89C82.98 50.34 83.12 52.53 83.26 54.57C83.4711 59.601 84.019 64.6122 84.9 69.57C85.43 72.29 82.62 74.57 77.58 75.57C76.1308 75.8557 74.6572 75.9997 73.18 76ZM67 71.66C67.41 73.66 72.31 74.56 77.29 73.57C80.95 72.85 83.29 71.33 83.04 69.89C82.1399 64.8566 81.5786 59.7685 81.36 54.66C81.23 52.66 81.08 50.45 80.89 48.03C80.7814 46.8124 80.432 45.6284 79.8621 44.5469C79.2921 43.4654 78.513 42.5079 77.57 41.73C76.8009 41.0935 75.9109 40.6191 74.9537 40.3356C73.9964 40.052 72.9917 39.9651 72 40.08C67.58 40.61 64.37 45.08 64.86 50.01V50.2C64.21 56.88 66.12 67.43 66.97 71.66H67Z" fill="#6D6DAA"/>
<path d="M66.37 28.5C60.26 24.74 58.7 16.15 62.9 9.32C67.1 2.49 75.47 -9.53674e-07 81.59 3.77C81.54 13 72.49 32.26 66.37 28.5Z" fill="#FFB0C2"/>
<path opacity="0.15" d="M77.57 2.24C72.2 1.24 66.24 3.9 62.9 9.32C59.16 15.41 62.62 18.32 67.17 22.58C73 21.69 78.92 9.75 77.57 2.24Z" fill="#750000"/>
<path d="M68 30C67.2284 30.0004 66.4725 29.7819 65.82 29.37V29.37C64.2173 28.3731 62.847 27.044 61.8016 25.4725C60.7563 23.9009 60.0601 22.1235 59.76 20.26C59.0816 16.2883 59.8973 12.206 62.05 8.8C66.54 1.51 75.53 -1.13 82.11 2.92C82.2541 3.01007 82.3729 3.13538 82.4551 3.2841C82.5374 3.43283 82.5803 3.60006 82.58 3.77C82.58 11.66 76.49 25.97 70.58 29.26C69.8001 29.7295 68.9101 29.9848 68 30V30ZM66.9 27.65C67.3165 27.8868 67.792 27.9994 68.2705 27.9746C68.7489 27.9498 69.2102 27.7886 69.6 27.51C74.6 24.72 80.25 11.62 80.6 4.33C75.01 1.33 67.6 3.68 63.79 9.85C61.917 12.8243 61.205 16.3841 61.79 19.85C62.0465 21.4356 62.6386 22.9481 63.5267 24.2863C64.4149 25.6246 65.5786 26.7578 66.94 27.61L66.9 27.65Z" fill="#6D6DAA"/>
<path d="M93.73 28.05H87.41C82.41 16.36 69.41 8.05 54.06 8.05C34.45 8.05 18.56 21.71 18.56 38.55C18.6069 45.2207 21.0647 51.6494 25.48 56.65C25.052 61.4006 24.8918 66.1714 25 70.94C25.12 76.44 42.05 78.06 43 72.67C43.26 71.21 43.54 69.53 43.81 67.73C47.1591 68.5859 50.6033 69.0127 54.06 69C55.14 69 56.21 68.95 57.26 68.87C57.51 70.31 57.76 71.65 58 72.87C59.09 78.24 76 76.22 76 70.72C76 68.42 75.08 65.52 75.8 62.64C80.2622 59.7084 83.9199 55.7069 86.44 51H93.73C96.39 51 98.54 45.86 98.54 39.52C98.54 33.18 96.39 28.05 93.73 28.05Z" fill="#FFB0C2"/>
<path d="M67.2 52.9C70.1437 52.9 72.53 50.5137 72.53 47.57C72.53 44.6263 70.1437 42.24 67.2 42.24C64.2563 42.24 61.87 44.6263 61.87 47.57C61.87 50.5137 64.2563 52.9 67.2 52.9Z" fill="#FF94AC"/>
<path d="M74.54 36C74.2748 36 74.0204 35.8946 73.8329 35.7071C73.6454 35.5196 73.54 35.2652 73.54 35C73.54 34.337 73.2766 33.7011 72.8078 33.2322C72.3389 32.7634 71.703 32.5 71.04 32.5C70.377 32.5 69.7411 32.7634 69.2722 33.2322C68.8034 33.7011 68.54 34.337 68.54 35C68.54 35.2652 68.4347 35.5196 68.2471 35.7071C68.0596 35.8946 67.8052 36 67.54 36C67.2748 36 67.0204 35.8946 66.8329 35.7071C66.6454 35.5196 66.54 35.2652 66.54 35C66.54 33.8065 67.0141 32.6619 67.858 31.818C68.7019 30.9741 69.8465 30.5 71.04 30.5C72.2335 30.5 73.3781 30.9741 74.222 31.818C75.0659 32.6619 75.54 33.8065 75.54 35C75.54 35.2652 75.4347 35.5196 75.2471 35.7071C75.0596 35.8946 74.8052 36 74.54 36Z" fill="#6D6DAA"/>
<g opacity="0.15">
<path opacity="0.15" d="M91 45H86C80.44 55.61 68.48 63 54.06 63C35.63 63 20.49 50.94 18.73 35.51C18.618 36.5061 18.5612 37.5076 18.56 38.51C18.56 55.36 34.45 69.01 54.06 69.01C68.48 69.01 80.88 61.62 86.44 51.01H93.73C96.39 51.01 98.54 45.87 98.54 39.53C98.5408 38.5276 98.484 37.5259 98.37 36.53C98 40 95 45 91 45Z" fill="#750000"/>
<path opacity="0.15" d="M40.67 62.67C39.61 64.49 38.75 70.08 38.67 72.58C38.57 75.46 33.31 75.31 28.75 74.73C33.82 76.73 42.38 76.46 43.07 72.67C43.54 70.06 44.07 66.75 44.45 63.33L40.67 62.67Z" fill="#750000"/>
<path opacity="0.15" d="M70.92 62.5C71.1 65.61 72.33 68.67 72.25 71.33C72.17 73.99 68.1 75.33 63.89 75.96C69.15 76.29 75.99 74.2 76 70.7C76 67.78 75.45 64.27 75.17 60.5L70.92 62.5Z" fill="#750000"/>
</g>
<path opacity="0.15" d="M60.74 8.58C58.5 14.56 59.83 20.82 65 24C69 22 74 18 76 15C71.5758 11.5394 66.3076 9.323 60.74 8.58V8.58Z" fill="#750000"/>
<path opacity="0.5" d="M54.06 11C69.38 11 81.74 19.35 86.71 31H93.71C96.15 31 98.17 35.35 98.48 41C98.48 40.51 98.48 40 98.48 39.5C98.48 33.16 96.33 28.02 93.67 28.02H87.41C82.41 16.33 69.41 8.02 54.06 8.02C34.45 8.02 18.56 21.68 18.56 38.52C18.56 39.02 18.56 39.52 18.56 40.02C19.51 23.86 35 11 54.06 11Z" fill="white"/>
<path d="M93.86 28.05H93.69C91.1 28.05 89 33.19 89 39.53C89 45.87 91.1 51 93.69 51H93.86C96.44 51 98.54 45.86 98.54 39.52C98.54 33.18 96.44 28.05 93.86 28.05Z" fill="#FFD8E1"/>
<path d="M65 77C61.34 77 57.61 76 57 73C56.81 72 56.61 71 56.41 69.89C55.6 69.89 54.81 69.96 54.04 69.96C50.9006 69.9901 47.7677 69.6681 44.7 69C44.5 70.32 44.28 71.62 44.05 72.89C43.41 76.43 38.24 77.3 34.05 76.96C29.14 76.57 24.16 74.58 24.05 70.96C23.9299 66.2893 24.0667 61.6156 24.46 56.96C20.046 51.8307 17.6034 45.2969 17.57 38.53C17.57 21.16 33.94 7.03 54.07 7.03C68.88 7.03 82.12 14.66 87.79 26.46C87.8666 26.6407 87.9946 26.795 88.1582 26.9034C88.3218 27.0119 88.5137 27.0698 88.71 27.07H93.71C97.02 27.07 99.52 32.44 99.52 39.55C99.52 46.66 97 52 93.73 52H87.62C87.4364 51.9996 87.2562 52.0498 87.0992 52.1451C86.9422 52.2403 86.8145 52.377 86.73 52.54C84.2057 56.8289 80.7465 60.4931 76.61 63.26C76.3939 64.7563 76.4379 66.2787 76.74 67.76C76.882 68.7343 76.9688 69.7159 77 70.7C77 74.31 72 76.41 67 76.9C66.39 77 65.7 77 65 77ZM57.25 67.88C57.4882 67.8765 57.7199 67.9582 57.9032 68.1104C58.0865 68.2626 58.2095 68.4752 58.25 68.71C58.49 70.13 58.75 71.47 58.98 72.71C59.33 74.42 62.64 75.37 66.86 74.96C71.42 74.51 74.99 72.66 75 70.75C74.9691 69.8526 74.8856 68.9577 74.75 68.07C74.47 65.91 74.19 63.68 74.9 62.23C74.9794 62.0712 75.0961 61.9339 75.24 61.83C79.2376 59.1959 82.5768 55.6788 85 51.55C85.2587 51.0814 85.6381 50.6905 86.0988 50.418C86.5595 50.1454 87.0847 50.0011 87.62 50H93.73C95.32 50 97.54 46 97.54 39.52C97.54 33.04 95.32 29.04 93.73 29.04H88.73C88.1573 29.0423 87.5959 28.8806 87.1121 28.5741C86.6284 28.2675 86.2425 27.8289 86 27.31C80.64 16.2 68.1 9 54.06 9C35.06 9 19.56 22.24 19.56 38.5C19.5875 44.951 21.962 51.1715 26.24 56C26.3287 56.1023 26.3957 56.2215 26.4369 56.3504C26.4782 56.4793 26.4928 56.6153 26.48 56.75C26.0513 61.4604 25.891 66.1914 26 70.92C26 72.81 29.61 74.57 34.13 74.92C38.33 75.25 41.73 74.21 42.04 72.49C42.35 70.77 42.6 69.24 42.85 67.59C42.8697 67.4516 42.9182 67.3188 42.9924 67.2003C43.0666 67.0817 43.1648 66.9801 43.2807 66.9019C43.3966 66.8236 43.5276 66.7706 43.6653 66.7462C43.803 66.7217 43.9443 66.7264 44.08 66.76C47.3411 67.5922 50.6944 68.0088 54.06 68C55.06 68 56.06 68 57.19 67.88H57.25Z" fill="#6D6DAA"/>
<path opacity="0.5" d="M32.92 66.75C32.66 69.75 32.27 71.36 30.46 70.83C28.81 70.35 28.59 69.53 28.68 66.07C28.75 63.42 30.17 62.55 31.17 62.83C32.5 63.21 33.08 64.83 32.92 66.75Z" fill="white"/>
<path opacity="0.5" d="M65.6 70.7C65.71 71.88 65.42 72.79 63.82 72.88C63.2388 72.9465 62.6543 72.786 62.1885 72.432C61.7227 72.078 61.4116 71.5578 61.32 70.98C61.05 69.52 62.32 68.92 63.39 68.91C63.6549 68.8675 63.9259 68.8813 64.1851 68.9505C64.4443 69.0197 64.6861 69.1428 64.8946 69.3117C65.1031 69.4806 65.2737 69.6915 65.3952 69.9307C65.5167 70.1699 65.5865 70.432 65.6 70.7V70.7Z" fill="white"/>
<path d="M92 41C91.7348 41 91.4804 40.8946 91.2929 40.7071C91.1054 40.5196 91 40.2652 91 40V39C91 38.7348 91.1054 38.4804 91.2929 38.2929C91.4804 38.1054 91.7348 38 92 38C92.2652 38 92.5196 38.1054 92.7071 38.2929C92.8946 38.4804 93 38.7348 93 39V40C93 40.2652 92.8946 40.5196 92.7071 40.7071C92.5196 40.8946 92.2652 41 92 41Z" fill="#6D6DAA"/>
<path d="M95 41C94.7348 41 94.4804 40.8946 94.2929 40.7071C94.1054 40.5196 94 40.2652 94 40V39C94 38.7348 94.1054 38.4804 94.2929 38.2929C94.4804 38.1054 94.7348 38 95 38C95.2652 38 95.5196 38.1054 95.7071 38.2929C95.8946 38.4804 96 38.7348 96 39V40C96 40.2652 95.8946 40.5196 95.7071 40.7071C95.5196 40.8946 95.2652 41 95 41Z" fill="#6D6DAA"/>
<path d="M57.91 27.5C51.79 23.74 50.24 15.15 54.44 8.32C58.64 1.49 67 -1 73.12 2.77C73.12 12 64 31.26 57.91 27.5Z" fill="#FFB0C2"/>
<path d="M65 25.29C64.7744 25.2887 64.5559 25.2112 64.38 25.07C64.174 24.905 64.0415 24.6652 64.0115 24.403C63.9816 24.1407 64.0565 23.8772 64.22 23.67C68.22 18.67 71.88 9.16 72.11 3.34C66.52 0.290001 59.11 2.68 55.29 8.85C55.2241 8.96779 55.1351 9.07103 55.0282 9.15349C54.9214 9.23595 54.7989 9.29593 54.6683 9.32981C54.5377 9.3637 54.4015 9.37079 54.268 9.35065C54.1346 9.33051 54.0066 9.28356 53.8918 9.21264C53.7769 9.14171 53.6776 9.04828 53.5999 8.93796C53.5221 8.82764 53.4675 8.70273 53.4393 8.57074C53.4111 8.43875 53.4099 8.30242 53.4358 8.16996C53.4617 8.0375 53.5142 7.91165 53.59 7.8C58.07 0.51 67.07 -2.13 73.59 1.92C73.736 2.00886 73.8567 2.13365 73.9408 2.28245C74.0248 2.43126 74.0693 2.59911 74.07 2.77C74.07 9 70.17 19.35 65.73 24.92C65.6413 25.0297 65.5304 25.1193 65.4046 25.1831C65.2788 25.2469 65.1409 25.2833 65 25.29V25.29Z" fill="#6D6DAA"/>
<path opacity="0.5" d="M64 9.42C61.34 12 58.5 14 57.33 12.83C56.16 11.66 56.59 8.83 59.25 6.25C61.91 3.67 66.34 2.65 67.5 3.83C68.66 5.01 66.66 6.8 64 9.42Z" fill="white"/>
<path d="M87 52C83.32 52 82.1 48.47 82 48.32C81.9151 48.068 81.9338 47.7927 82.052 47.5545C82.1701 47.3163 82.378 47.1349 82.63 47.05C82.8819 46.9651 83.1573 46.9838 83.3955 47.102C83.6336 47.2201 83.8151 47.428 83.9 47.68V47.68C84.1241 48.3332 84.5397 48.9038 85.0926 49.3176C85.6455 49.7313 86.3101 49.9691 87 50C87.2652 50 87.5196 50.1054 87.7071 50.2929C87.8946 50.4804 88 50.7348 88 51C88 51.2652 87.8946 51.5196 87.7071 51.7071C87.5196 51.8946 87.2652 52 87 52Z" fill="#6D6DAA"/>
<path d="M33.9075 37.6151L29.5483 43.3701L26.744 36.7173L21.02 36L28.3058 53.2842L39.6315 38.3325L33.9075 37.6151Z" fill="#FF94AC"/>
</svg>
