<svg width="200" height="137" viewBox="0 0 200 137" fill="none" xmlns="http://www.w3.org/2000/svg">
<path fill-rule="evenodd" clip-rule="evenodd" d="M78.3578 31.4611L96.4537 9.15527e-05H156.716L134.015 39.4676C130.622 38.89 126.851 38.6447 122.615 38.8345C100.923 39.8064 87.8485 51.2617 83.3979 73.1974C91.047 61.9852 100.355 57.4925 111.324 59.719C114.568 60.3772 117.373 61.8473 120.035 63.7724L78.3578 136.232L0 9.15527e-05H60.2619L78.3578 31.4611Z" fill="#374F73"/>
<path d="M118.567 49.1662C96.8529 49.1662 83.2791 60.0247 77.8511 81.7393C85.9943 70.8807 95.494 66.8091 106.353 69.5244C122.639 73.596 126.711 98.0258 159.284 98.0258C180.998 98.0258 194.572 87.1673 200 65.4527C191.857 76.3113 182.357 80.3829 171.499 77.6676C155.212 73.596 151.14 49.1662 118.567 49.1662Z" fill="#38BDF8"/>
<path d="M96.4567 1.79125e-05L78.3609 31.4611L60.265 1.79125e-05H31.3462L78.3609 81.7375L125.376 1.79125e-05H96.4567Z" fill="#38BDF8"/>
</svg>
