<svg width="155" height="74" viewBox="0 0 155 74" fill="none" xmlns="http://www.w3.org/2000/svg">
<rect width="155" height="74" rx="16" fill="#34495E"/>
<rect x="75" y="6" width="75" height="62" rx="13" fill="#0094FF"/>
<path d="M16.4756 23.6113L24.5967 41.2393L32.6855 23.6113H40.8389L24.5322 57.1592L8.35449 23.6113H16.4756Z" fill="white"/>
<path d="M51.0405 23.6113V41.626C51.0405 46.8252 53.0923 49.4248 57.1958 49.4248C61.2993 49.4248 63.3511 46.8252 63.3511 41.626V23.6113H70.602V41.7871C70.602 44.3008 70.2905 46.4707 69.6675 48.2969C69.0659 49.9297 68.0239 51.4014 66.5415 52.7119C64.0923 54.8389 60.977 55.9023 57.1958 55.9023C53.436 55.9023 50.3315 54.8389 47.8823 52.7119C46.3784 51.4014 45.3149 49.9297 44.6919 48.2969C44.0903 46.8359 43.7895 44.666 43.7895 41.7871V23.6113H51.0405Z" fill="white"/>
<path d="M88.5078 23.6113L96.7256 41.5293L105.588 20.7432L114.515 41.5293L122.636 23.6113H130.757L114.321 57.3525L105.588 37.1465L96.7578 57.3525L80.3545 23.6113H88.5078Z" fill="white"/>
<path d="M140.958 23.6113V55H133.708V23.6113H140.958Z" fill="white"/>
</svg>
