<svg width="196" height="133" viewBox="0 0 196 133" fill="none" xmlns="http://www.w3.org/2000/svg">
<path fill-rule="evenodd" clip-rule="evenodd" d="M76.4981 30.7144L94.1645 3.47762e-05H152.996L130.834 38.5309C127.522 37.967 123.84 37.7276 119.705 37.9129C98.5274 38.8617 85.7635 50.0451 81.4185 71.4602C88.886 60.5142 97.973 56.128 108.682 58.3017C111.849 58.9443 114.587 60.3795 117.186 62.2589L76.4981 132.999L0 3.47762e-05H58.8317L76.4981 30.7144Z" fill="#41B882"/>
<path d="M115.753 47.9993C94.5538 47.9993 81.3021 58.6002 76.0029 79.7993C83.9529 69.1985 93.2271 65.2235 103.828 67.8743C119.728 71.8493 123.703 95.6993 155.503 95.6993C176.702 95.6993 189.954 85.0985 195.253 63.8993C187.303 74.5002 178.029 78.4752 167.428 75.8243C151.528 71.8493 147.553 47.9993 115.753 47.9993Z" fill="#34495E"/>
<path d="M94.1646 -7.62939e-06L76.4982 30.7144L58.8318 -7.62939e-06H30.5994L76.4982 79.7976L122.397 -7.62939e-06H94.1646Z" fill="#34495E"/>
</svg>
