<svg width="200" height="200" viewBox="0 0 200 200" xmlns="http://www.w3.org/2000/svg">
<path fill-rule="evenodd" clip-rule="evenodd" d="M148.665 138.511C145.974 148.662 141.342 156.763 135.654 161.191C152.418 157.35 165.536 143.756 168.794 126.601C164.622 131.661 157.519 135.845 148.665 138.511Z" fill-opacity="0.24"/>
<path fill-rule="evenodd" clip-rule="evenodd" d="M80.436 141.108C85.3747 142.311 90.7649 143.063 96.4299 143.264V153.452C94.1449 155.124 91.8791 156.68 89.646 158.112C87.8286 156.295 86.0794 153.923 84.4703 150.974C82.9 148.095 81.5348 144.775 80.436 141.108Z" fill-opacity="0.24"/>
<path fill-rule="evenodd" clip-rule="evenodd" d="M113.748 102.738V127.274C119.477 127.168 124.949 126.581 130.036 125.599C130.425 125.215 130.813 124.83 131.201 124.442C133.053 122.59 134.848 120.728 136.587 118.859C137.391 113.932 137.829 108.68 137.829 103.21C137.829 103.053 137.829 102.895 137.828 102.738H113.748Z" fill-opacity="0.24"/>
<path fill-rule="evenodd" clip-rule="evenodd" d="M39.1354 101.633H57.4995C57.4986 101.773 57.4978 101.914 57.4978 102.053C57.4978 108.058 58.066 113.819 59.1075 119.167C56.4227 118.2 53.9438 117.095 51.7104 115.877C43.9662 111.654 39.8927 106.54 39.1354 101.633Z" fill-opacity="0.24"/>
<path fill-rule="evenodd" clip-rule="evenodd" d="M76.8845 65.6054C82.7507 64.0829 89.2649 63.1133 96.1883 62.856V85.1618H73.5301C73.9627 78.0864 75.1392 71.479 76.8845 65.6054Z" fill-opacity="0.24"/>
<path fill-rule="evenodd" clip-rule="evenodd" d="M163.653 85.9206H154.393C154.091 80.1682 153.309 74.7071 152.131 69.708C155.174 70.8004 157.948 72.1106 160.391 73.59C163.343 75.3779 165.691 77.3283 167.461 79.3547C166.293 81.5114 165.022 83.7045 163.653 85.9206Z" fill-opacity="0.24"/>
<path fill-rule="evenodd" clip-rule="evenodd" d="M47.7178 63.0711C51.8389 50.6679 61.9452 41.0495 74.5562 37.6853C70.5369 41.1603 67.1638 46.7339 64.8566 53.635C57.5654 55.7778 51.5795 59.0718 47.7178 63.0711Z" fill-opacity="0.24"/>
<path fill-rule="evenodd" clip-rule="evenodd" d="M176.159 72.8264L176.126 72.7324V72.7337L176.159 72.8264L176.669 74.2741C176.505 73.7893 176.335 73.3086 176.159 72.8264Z" fill="#FF0000"/>
<path fill-rule="evenodd" clip-rule="evenodd" d="M132.007 21.2319C157.231 8.1206 178.775 5.13782 189.179 15.5418C199.664 26.0266 196.554 47.8239 183.184 73.2981C185.788 81.3193 187.198 89.8875 187.198 98.7868C187.198 143.976 150.88 180.611 106.078 180.611C97.346 180.611 88.9354 179.219 81.0532 176.642C54.4612 191.185 31.5248 194.88 20.6824 184.038C9.73139 173.086 13.6122 149.792 28.5261 122.854L28.5592 122.964C29.4056 125.726 30.3923 128.425 31.5115 131.054L31.5142 131.06C30.2095 133.621 29.0188 136.138 27.9446 138.597C23.5022 148.772 21.1976 157.676 20.9287 164.803C20.6599 171.919 22.4135 176.591 25.2718 179.449C28.1301 182.309 32.8016 184.062 39.9181 183.793C47.0466 183.523 55.9486 181.22 66.1234 176.778C68.3791 175.792 70.6811 174.71 73.0241 173.531C54.4413 165.156 39.5539 149.939 31.5115 131.054C31.4426 130.878 29.4188 125.746 28.5592 122.964C26.2201 115.322 24.9605 107.203 24.9605 98.7868C24.9605 53.5961 61.2784 16.963 106.078 16.963C115.146 16.963 123.866 18.4636 132.007 21.2319ZM184.59 20.1312C187.449 22.9895 189.203 27.661 188.934 34.7776C188.664 41.906 186.361 50.808 181.918 60.9829C181.325 62.3431 180.694 63.7193 180.031 65.1113C171.999 47.1934 157.755 32.7166 140.072 24.4716C141.306 23.8875 142.529 23.3312 143.738 22.804C153.913 18.3617 162.816 16.057 169.943 15.7881C177.06 15.5193 181.731 17.2729 184.59 20.1312ZM80.4387 169.555C81.4837 168.962 82.5354 168.35 83.5923 167.722C76.04 159.642 69.9301 147.531 66.138 132.997C51.3367 128.319 39.534 121.133 32.6837 112.503C37.4996 138.946 55.987 160.525 80.4387 169.555ZM35.3075 74.8107C43.24 50.9365 62.693 32.4213 86.9671 25.9471C79.2307 32.6358 72.738 43.3643 68.2969 56.6464C54.2625 60.7723 42.7407 67.1127 35.3075 74.8107ZM76.0493 54.6544C77.3883 51.1762 78.8797 47.9365 80.497 44.9709C86.5844 33.812 93.844 27.4901 100.954 25.5776V51.5365C92.1936 51.8491 83.8175 52.9285 76.0493 54.6544ZM130.682 44.9709C124.217 33.1179 116.428 26.7219 108.901 25.2729V51.4663C118.078 51.6292 126.865 52.6332 135.011 54.3418C133.701 50.9829 132.252 47.8477 130.682 44.9709ZM73.5301 62.0703C81.8638 59.9074 91.1181 58.5299 100.954 58.163V89.8531H68.7645C69.3777 79.8014 71.0506 70.4146 73.5301 62.0703ZM68.5049 97.8001H100.954V132.139C90.3804 131.744 80.4797 130.183 71.6705 127.733C69.644 118.796 68.5036 108.913 68.5036 98.4623C68.5036 98.2411 68.5049 98.0213 68.5049 97.8001ZM62.1301 89.8531C62.6585 80.8014 64.0069 72.2014 66.0387 64.3074C61.1804 65.9603 56.7261 67.8954 52.7605 70.0583C41.9473 75.9564 35.6758 82.9564 33.5592 89.8531H62.1301ZM32.9473 97.8001H61.8824C61.8824 98.0213 61.8811 98.2411 61.8811 98.4623C61.8811 107.923 62.7751 117.001 64.4175 125.428C60.1857 123.905 56.2811 122.164 52.7605 120.244C40.5592 113.588 34.1407 105.531 32.9473 97.8001ZM108.901 97.8001V132.213C116.937 132.064 124.611 131.241 131.746 129.864C132.292 129.326 132.836 128.784 133.38 128.24C135.976 125.644 138.496 123.032 140.933 120.409C142.061 113.501 142.676 106.134 142.676 98.4623C142.676 98.2411 142.676 98.0213 142.674 97.8001H108.901ZM149.297 97.8001C149.298 98.0213 149.298 98.2411 149.298 98.4623C149.298 102.976 149.096 107.401 148.704 111.711C152.689 107.064 156.415 102.412 159.863 97.8001H149.297ZM165.558 89.8531H149.049C148.512 80.6173 147.117 71.8517 145.016 63.8266C150.441 65.5802 155.387 67.6822 159.743 70.0583C165.006 72.9285 169.191 76.0597 172.347 79.3127C170.264 82.7749 167.998 86.2954 165.558 89.8531ZM167.908 97.8001C161.859 106.223 154.914 114.772 147.172 123.219C147.012 124.129 146.843 125.032 146.664 125.927C151.445 124.29 155.832 122.378 159.743 120.244C171.945 113.588 178.363 105.531 179.557 97.8001H167.908ZM178.946 89.8531H173.375C174.497 88.1471 175.58 86.4504 176.624 84.763C177.653 86.4544 178.425 88.1564 178.946 89.8531ZM142.415 89.8531H108.901V58.0901C119.161 58.2795 128.831 59.5683 137.542 61.7087C140.081 70.1431 141.792 79.6557 142.415 89.8531ZM73.5963 135.078C82.044 137.136 91.2638 138.421 100.954 138.766V156.192C97.0453 159.053 93.1698 161.714 89.3499 164.163C86.2413 161.056 83.2493 156.999 80.497 151.954C77.8109 147.029 75.4744 141.35 73.5963 135.078ZM108.901 138.836V150.127C113.692 146.323 118.505 142.232 123.294 137.869C118.635 138.42 113.824 138.75 108.901 138.836ZM94.6281 168.474C96.7248 167.101 98.8347 165.669 100.954 164.179V171.347C98.8479 170.78 96.7274 169.827 94.6281 168.474ZM108.901 158.352V171.652C116.428 170.203 124.217 163.807 130.682 151.954C133.321 147.118 135.62 141.555 137.482 135.416C136.574 135.625 135.657 135.827 134.733 136.019C126.208 144.295 117.517 151.775 108.901 158.352ZM144.925 133.442C140.321 150.812 132.395 164.676 122.66 172.253C151.349 165.681 173.796 142.417 179.371 113.061C172.232 121.718 160.077 128.88 144.925 133.442ZM176.669 74.2729C168.47 50.204 148.533 31.6703 123.794 25.5881C131.632 32.1802 138.224 42.8994 142.741 56.2266C156.557 60.0875 168.047 66.0729 175.764 73.3908C175.885 73.1709 176.006 72.9524 176.126 72.7325C176.312 73.2438 176.493 73.7577 176.669 74.2729Z" />
<path fill-rule="evenodd" clip-rule="evenodd" d="M9.53011 55.5316H1.12532C0.504214 55.5316 0.000205994 56.0361 0.000205994 56.6567V58.907C0.000205994 59.5281 0.504214 60.0321 1.12532 60.0321H9.53011V68.4373C9.53011 69.0585 10.0346 69.5625 10.6552 69.5625H12.9055C13.5266 69.5625 14.0306 69.0585 14.0306 68.4373V60.0321H22.4358C23.0565 60.0321 23.561 59.5281 23.561 58.907V56.6567C23.561 56.0361 23.0565 55.5316 22.4358 55.5316H14.0306V47.1268C14.0306 46.5057 13.5266 46.0017 12.9055 46.0017H10.6552C10.0346 46.0017 9.53011 46.5057 9.53011 47.1268V55.5316Z" />
<path fill-rule="evenodd" clip-rule="evenodd" d="M185.162 162.363H176.757C176.136 162.363 175.632 162.868 175.632 163.488V165.739C175.632 166.36 176.136 166.864 176.757 166.864H185.162V175.269C185.162 175.89 185.667 176.394 186.287 176.394H188.538C189.159 176.394 189.663 175.89 189.663 175.269V166.864H198.068C198.689 166.864 199.193 166.36 199.193 165.739V163.488C199.193 162.868 198.689 162.363 198.068 162.363H189.663V153.958C189.663 153.337 189.159 152.833 188.538 152.833H186.287C185.667 152.833 185.162 153.337 185.162 153.958V162.363Z" />
</svg>
