<svg width="112" height="112" viewBox="0 0 112 112" xmlns="http://www.w3.org/2000/svg">
<path fill-rule="evenodd" clip-rule="evenodd" d="M72.4838 7.37217C88.031 -0.709409 101.31 -2.5477 107.723 3.86522C114.186 10.3276 112.269 23.7629 104.028 39.465C105.634 44.4092 106.502 49.6901 106.502 55.1755C106.502 83.0299 84.1159 105.61 56.5017 105.61C51.119 105.61 45.9349 104.752 41.0765 103.165C24.6858 112.129 10.5476 114.406 3.86522 107.723C-2.88521 100.973 -0.493058 86.6142 8.69974 70.0109C9.22589 71.7379 9.84148 73.4253 10.5411 75.0678C9.73713 76.6473 9.00303 78.1981 8.34094 79.7145C5.60259 85.9862 4.18253 91.4735 4.01648 95.8669C3.8507 100.253 4.93164 103.133 6.69364 104.895C8.45565 106.657 11.3351 107.738 15.7217 107.572C20.1151 107.406 25.6024 105.986 31.8741 103.248C33.2643 102.641 34.6834 101.973 36.127 101.247C18.6683 93.379 6.50171 75.7104 6.50171 55.1755C6.50171 27.3211 28.8875 4.74072 56.5017 4.74072C62.0907 4.74072 67.4654 5.66571 72.4838 7.37217ZM104.895 6.69364C106.657 8.45564 107.738 11.3351 107.572 15.7217C107.406 20.1151 105.986 25.6024 103.248 31.8741C102.882 32.7121 102.494 33.5606 102.084 34.4186C97.1339 23.3747 88.3546 14.4508 77.4541 9.3692C78.2154 9.00922 78.9691 8.66638 79.7145 8.34094C85.9862 5.60259 91.4735 4.18253 95.8669 4.01648C100.253 3.85069 103.133 4.93164 104.895 6.69364ZM40.6977 98.7961C51.0793 92.8962 62.4385 84.2219 73.3302 73.3302C84.7777 61.8827 93.7756 49.9188 99.6775 39.1164C100.306 40.8382 100.837 42.6081 101.262 44.4193C95.1943 54.6829 86.6498 65.6675 76.1586 76.1586C66.1712 86.1461 55.7365 94.3693 45.9024 100.371C49.3061 101.181 52.8549 101.61 56.5017 101.61C81.8742 101.61 102.502 80.8535 102.502 55.1755C102.502 29.4976 81.8742 8.74072 56.5017 8.74072C31.1292 8.74072 10.5017 29.4976 10.5017 55.1755C10.5017 75.2361 23.0914 92.2933 40.6977 98.7961Z" />
</svg>
