<svg width="73" height="31" viewBox="0 0 73 31" xmlns="http://www.w3.org/2000/svg">
<path d="M6.68114 6.83817C6.6621 6.83817 6.63544 6.82334 6.60498 6.79371C6.57453 6.76407 6.55929 6.72887 6.55929 6.68997V5.98053C6.55929 5.34703 6.43746 4.93767 6.19378 4.75058C5.9501 4.56164 5.57507 4.46902 5.06677 4.46902C4.57941 4.46902 4.21389 4.5672 3.97021 4.7654C3.72654 4.96175 3.60469 5.3674 3.60469 5.98053V9.41848C3.60469 10.1094 3.76842 10.6725 4.09205 11.1078L8.7524 17.5391C9.23975 18.1912 9.59576 18.8469 9.81849 19.51C10.0431 20.1713 10.1535 20.8974 10.1535 21.6884V26.46C10.1535 27.7233 9.78422 28.6624 9.04177 29.2756C8.30121 29.8868 6.97622 30.1943 5.06677 30.1943C3.15922 30.1943 1.84373 29.8924 1.12222 29.2904C0.402605 28.6865 0.0408936 27.7437 0.0408936 26.46V24.5058C0.0408936 24.4076 0.0827815 24.3576 0.162738 24.3576H3.51331C3.53425 24.3576 3.5552 24.3669 3.57424 24.3872C3.59518 24.4076 3.60469 24.4465 3.60469 24.5058V25.2152C3.60469 25.8265 3.72654 26.2266 3.97021 26.4156C4.21389 26.6026 4.57941 26.6971 5.06677 26.6971C5.57507 26.6971 5.9501 26.6026 6.19378 26.4156C6.43746 26.2266 6.55929 25.8265 6.55929 25.2152V21.7773C6.55929 21.0456 6.407 20.4732 6.1024 20.0583L1.41159 13.5677C0.92423 12.8953 0.573946 12.2433 0.360727 11.6116C0.147509 10.9781 0.0408936 10.278 0.0408936 9.50739V4.85431C0.0408936 3.58916 0.421645 2.62594 1.18314 1.96466C1.94464 1.30152 3.23918 0.971802 5.06677 0.971802C6.93624 0.971802 8.24981 1.30152 9.01131 1.96466C9.7728 2.62594 10.1535 3.58916 10.1535 4.85431V6.68997C10.1535 6.78815 10.1136 6.83817 10.0317 6.83817H6.68114Z"/>
<path d="M23.434 29.7497C23.4549 29.7886 23.4492 29.8275 23.4188 29.8683C23.3883 29.9072 23.3636 29.9276 23.3426 29.9276H20.0225C20.0035 29.9276 19.9825 29.9127 19.9616 29.8831C19.9426 29.8535 19.9216 29.809 19.9007 29.7497L17.7076 9.41845C17.7076 9.41845 15.5354 29.8275 15.5145 29.8683C15.4954 29.9072 15.4745 29.9276 15.4535 29.9276H12.1334C12.1144 29.9276 12.0877 29.9072 12.0573 29.8683C12.0268 29.8275 12.023 29.7886 12.042 29.7497L15.9713 1.53488C15.9713 1.4756 15.9828 1.43115 16.0018 1.40151C16.0228 1.37187 16.0437 1.35706 16.0627 1.35706H19.3829C19.4038 1.35706 19.4247 1.37558 19.4438 1.41633C19.4647 1.45523 19.4742 1.49413 19.4742 1.53488L23.434 29.7497Z"/>
<path d="M32.9984 1.35706C33.0403 1.35706 33.0745 1.37187 33.105 1.40151C33.1354 1.43115 33.1507 1.45523 33.1507 1.4756V4.64682C33.1507 4.66534 33.1411 4.69127 33.1202 4.7209C33.1012 4.75054 33.0593 4.76536 32.9984 4.76536H29.8306V29.7794C29.8306 29.8183 29.8153 29.8535 29.7849 29.8831C29.7544 29.9127 29.7297 29.9276 29.7087 29.9276H26.4495C26.4305 29.9276 26.4038 29.9127 26.3734 29.8831C26.3429 29.8535 26.3277 29.8183 26.3277 29.7794V4.76536H23.1599C23.1199 4.76536 23.0837 4.75054 23.0533 4.7209C23.0228 4.69127 23.0076 4.66534 23.0076 4.64682V1.4756C23.0076 1.45523 23.0228 1.43115 23.0533 1.40151C23.0837 1.37187 23.1199 1.35706 23.1599 1.35706H32.9984Z"/>
<path d="M45.426 1.35706C45.4469 1.35706 45.4717 1.36632 45.5022 1.38669C45.5326 1.40521 45.5478 1.44597 45.5478 1.50524V26.4896C45.5478 27.7733 45.1785 28.7161 44.4361 29.32C43.6955 29.922 42.3705 30.2239 40.4611 30.2239C38.5535 30.2239 37.238 29.922 36.5165 29.32C35.7969 28.7161 35.4352 27.7733 35.4352 26.4896V1.50524C35.4352 1.44597 35.4504 1.40521 35.4809 1.38669C35.5113 1.36632 35.538 1.35706 35.557 1.35706H38.9076C38.9285 1.35706 38.9495 1.36632 38.9685 1.38669C38.9895 1.40521 38.999 1.44597 38.999 1.50524V25.2448C38.999 25.8765 39.1265 26.2822 39.3797 26.46C39.6348 26.6378 39.9946 26.7267 40.4611 26.7267C40.9693 26.7267 41.3501 26.6378 41.6033 26.46C41.8584 26.2822 41.984 25.8765 41.984 25.2448V1.50524C41.984 1.44597 41.9955 1.40521 42.0145 1.38669C42.0354 1.36632 42.0564 1.35706 42.0754 1.35706H45.426Z"/>
<path d="M59.0415 29.7497C59.0625 29.809 59.0567 29.8535 59.0263 29.8831C58.9958 29.9127 58.9711 29.9276 58.9501 29.9276H55.6605C55.6414 29.9276 55.6205 29.9165 55.5995 29.8979C55.5805 29.8776 55.5596 29.8479 55.5386 29.809L53.2237 17.3316H51.7921C51.7921 17.3316 51.7768 20.3213 51.7559 20.3213L48.432 20.3547C48.411 20.3547 48.2892 1.50524 48.2892 1.50524C48.2892 1.44597 48.3044 1.40521 48.3349 1.38669C48.3653 1.36632 48.392 1.35706 48.411 1.35706H53.5587C55.2245 1.35706 56.4486 1.67751 57.2291 2.32027C58.0116 2.96118 58.4018 3.90588 58.4018 5.15065V12.9453C58.4018 14.0123 58.2762 14.8514 58.0211 15.4645C57.7679 16.0758 57.2139 16.5703 56.361 16.9464L59.0415 29.7497ZM53.1323 13.9067C53.1323 13.9067 54.2289 13.8048 54.4725 13.627C54.7162 13.4491 54.8381 13.0435 54.8381 12.4118V6.27687C54.8381 5.66375 54.7162 5.2692 54.4725 5.09137C54.2289 4.91355 53.8443 4.82463 53.3151 4.82463H51.7921V17.3316H53.1228L53.1323 13.9067Z"/>
<path d="M71.9261 1.35706C71.947 1.35706 71.9679 1.36632 71.987 1.38669C72.0079 1.40521 72.0174 1.44597 72.0174 1.50524V29.7794C72.0174 29.8183 72.0079 29.8535 71.987 29.8831C71.9679 29.9127 71.947 29.9276 71.9261 29.9276H68.6364C68.6173 29.9276 68.5964 29.9165 68.5755 29.8979C68.5564 29.8776 68.5355 29.8479 68.5146 29.809L65.0726 12.3229V29.7794C65.0726 29.8183 65.0574 29.8535 65.0269 29.8831C64.9964 29.9127 64.9717 29.9276 64.9507 29.9276H61.6915C61.6725 29.9276 61.6459 29.9127 61.6154 29.8831C61.5849 29.8535 61.5697 29.8183 61.5697 29.7794V1.50524C61.5697 1.44597 61.5849 1.40521 61.6154 1.38669C61.6459 1.36632 61.6725 1.35706 61.6915 1.35706H64.9507C64.9717 1.35706 64.9964 1.36632 65.0269 1.38669C65.0574 1.40521 65.0726 1.43485 65.0726 1.4756L68.5146 18.9617V1.50524C68.5146 1.44597 68.5298 1.40521 68.5602 1.38669C68.5907 1.36632 68.6173 1.35706 68.6364 1.35706H71.9261Z"/>
</svg>
